<svg width="64" height="64" viewBox="0 0 64 64" fill="none" xmlns="http://www.w3.org/2000/svg">
<path d="M27.5 0C11 0 0 16.5 0 31.5C0 46.5 6.96674 54.3382 18.5 55.5C35.1427 57.1766 26.9742 64 38.5 64C52.5 64 64 50.5 64 31.5C64 20.5 52 0 27.5 0Z" fill="#9290F4"/>
<path d="M25.069 32.064L31.085 42.432C31.2983 42.7733 31.2983 43.1253 31.085 43.488C30.8717 43.8293 30.5623 44 30.157 44H26.445C25.229 44 24.3437 43.4667 23.789 42.4L18.925 33.152C18.925 33.1307 18.9143 33.12 18.893 33.12C18.8717 33.12 18.861 33.1307 18.861 33.152V42.176C18.861 42.6667 18.6797 43.0933 18.317 43.456C17.9543 43.8187 17.5277 44 17.037 44H14.285C13.7943 44 13.3677 43.8187 13.005 43.456C12.6423 43.0933 12.461 42.6667 12.461 42.176V22.464C12.461 21.9733 12.6423 21.5467 13.005 21.184C13.3677 20.8213 13.7943 20.64 14.285 20.64H17.037C17.5277 20.64 17.9543 20.8213 18.317 21.184C18.6797 21.5467 18.861 21.9733 18.861 22.464V30.528C18.861 30.5493 18.8717 30.56 18.893 30.56C18.9143 30.56 18.925 30.5493 18.925 30.528L23.437 22.24C24.013 21.1733 24.909 20.64 26.125 20.64H29.837C30.2423 20.64 30.541 20.8213 30.733 21.184C30.9463 21.5253 30.9463 21.8667 30.733 22.208L25.069 31.616C24.9623 31.744 24.9623 31.8933 25.069 32.064ZM41.498 34.72H44.826C44.89 34.72 44.9433 34.6987 44.986 34.656C45.05 34.592 45.0713 34.528 45.05 34.464L43.194 26.112C43.194 26.0907 43.1833 26.08 43.162 26.08C43.1407 26.08 43.13 26.0907 43.13 26.112L41.274 34.464C41.2527 34.528 41.2633 34.592 41.306 34.656C41.37 34.6987 41.434 34.72 41.498 34.72ZM47.13 22.368L53.402 42.272C53.53 42.6987 53.4553 43.0933 53.178 43.456C52.922 43.8187 52.57 44 52.122 44H48.986C48.4527 44 47.9727 43.84 47.546 43.52C47.1407 43.1787 46.8847 42.752 46.778 42.24L46.234 39.776C46.1913 39.6053 46.0847 39.52 45.914 39.52H40.442C40.2287 39.52 40.1113 39.6053 40.09 39.776L39.546 42.24C39.4393 42.752 39.1727 43.1787 38.746 43.52C38.3407 43.84 37.8713 44 37.338 44H34.33C33.882 44 33.5193 43.8187 33.242 43.456C32.986 43.0933 32.922 42.6987 33.05 42.272L39.322 22.368C39.4713 21.856 39.7593 21.44 40.186 21.12C40.634 20.8 41.1353 20.64 41.69 20.64H44.762C45.2953 20.64 45.7753 20.8 46.202 21.12C46.65 21.44 46.9593 21.856 47.13 22.368Z" fill="#FBFBFB"/>
</svg>
